<?xml version="1.0" encoding="utf-8"?>
<!-- Generator: Adobe Illustrator 25.0.0, SVG Export Plug-In . SVG Version: 6.00 Build 0)  -->
<svg version="1.1" id="凉心" xmlns="http://www.w3.org/2000/svg" xmlns:xlink="http://www.w3.org/1999/xlink" x="0px" y="0px"
	 viewBox="0 0 564.7 121.5" style="enable-background:new 0 0 564.7 121.5;" xml:space="preserve">
<style type="text/css">
	.st0{fill:#6E7F94;}
	.st1{fill:#221714;}
	.st2{fill:#753C48;}
	.st3{fill:#B5BECD;}
	.st4{fill:#494451;}
	.st5{fill:#687181;}
	.st6{fill:#52759A;}
	.st7{fill:#AFD2EA;}
	.st8{fill:#58A0C7;}
	.st9{fill:#6CA1B9;}
	.st10{fill:#398EC6;}
</style>
<path class="st0" d="M95.6,17.9c0.1-0.1,0.3-0.1,0.6-0.1c0.5,0,0.8,0,1,0.1l1.9,0.1c0.4,0.1,0.7,0.2,1.2,0.4
	c0.4,0.2,0.8,0.3,1.1,0.5c1.6,0.7,2.7,1.1,3.3,1.3c1.7,0.5,2.4,0.7,2.2,0.6c0.4,0.3,0.7,0.4,1.1,0.4c0.1,0,0.2,0.1,0.2,0.4
	c0,0.1,0.1,0.3,0.3,0.5c0.3,0.1,0.4,0.4,0.4,0.8l0.4,1l0.4,0.8c0.1,0.5-0.1,1.1-0.6,2c-0.5,0.8-0.9,1.3-1.3,1.4
	c-0.3,0.1-0.5,0.3-0.6,0.6c-0.1,0.2-0.1,0.6-0.2,1.2c0,0.6-0.1,1.2-0.2,2c-0.2,1.8-0.4,2.8-0.4,3.1c-0.1,0.4-0.2,1.3-0.3,2.6
	l-0.7,7.6l-0.2,3.5l-0.2,3.7c-0.1,0.6-0.3,1.7-0.4,3.2l-0.3,2.5c-0.1,0.2-1.3,1.4-1.4,3.4c-0.4,5.2,0.4,8.8,0,10.9l-0.4,3.2
	c0,0.5,0,0.9-0.1,1.2c-0.1,0.3-0.1,0.6-0.1,0.8c0,0.2,0.2,0.3,0.6,0.3c0.1,0.1,0.7,0.1,1.6,0.1c7.6-0.6,13.3-1.1,17.1-1.6
	c2.1-0.1,3.4-0.3,3.9-0.4c0.5-0.1,0.8-0.4,1.1-0.7c0.4-0.6,0.7-1,0.8-1l0.2,0.1c0.5,0.3,1.1,0.4,1.8,0.4h0.4c0.3-0.1,0.6-0.1,0.8,0
	c0.2,0.1,0.5,0.1,0.7,0c0.1-0.1,0.4-0.3,0.8-0.5c0.5-0.2,0.9-0.4,1.2-0.5c0.4-0.1,1.3-0.3,2.8-0.4c0.6,0,1,0,1.3-0.1
	c0.3,0,0.5-0.1,0.6-0.1c0.6-0.1,1.4,0,2.4,0.5c0.9,0.4,1.7,1,2.3,1.6c0.4,0.6,0.8,0.9,1.2,1.2l2,2.4l1.4,1.6V83
	c0,0.4-0.1,0.9-0.2,1.6l-0.7,1.5c-0.2,0.8-0.8,1.5-1.7,2.2c-0.3,0.1-0.6,0.1-1,0c-0.1-0.1-0.4-0.1-0.7-0.1l-0.8,0.2l-0.8,0.2h-0.1
	c0-0.1-0.1-0.2-0.3-0.1c-0.2,0.1-0.5,0.2-1,0.3c-1.8,0.2-2.6,0.5-2.6,0.7c0,0.1-0.2,0.3-0.7,0.5c-0.5,0.2-1,0.4-1.5,0.4
	c-0.4,0-0.6,0.1-0.8,0.3c0,0.1-0.3,0.1-0.7,0.1l-0.4,0.1c0,0.1-0.2,0.3-0.7,0.5c-0.5,0.2-0.9,0.4-1.2,0.4c-0.1,0-0.3,0.1-0.4,0.3
	c0,0.1-0.1,0.2-0.3,0.2l-1.1,0.4l-4.8,2.1l-1.7,0.6l-1.2,0.4l-1,0.4l-1,0.3c-0.1,0.1-0.1,0.1-0.2,0.1c0,0,0-0.1,0.1-0.2
	c0.7-0.4,1.3-0.7,1.8-0.8l2.5-1.3l3.5-1.6c2.7-1.6,4.3-2.6,4.9-3.1c0.1-0.1,0.2-0.1,0.2-0.2c0,0,0-0.1-0.1-0.1
	c-0.2,0.1-0.5,0.2-0.7,0.4c-0.3,0.2-0.5,0.3-0.6,0.3c-0.3,0-0.5,0.1-0.6,0.2l-2.4,1.4c-1.8,0.9-2.8,1.4-2.9,1.5
	c-0.1,0.1-0.3,0.2-0.5,0.3c-0.2,0-0.3,0-0.3-0.2l1-0.7c0.6-0.3,1-0.6,1.2-0.8c0-0.3,0.1-0.4,0.4-0.4c0.1,0,0.2-0.1,0.5-0.4
	c0.1-0.1,0.1-0.2,0-0.2c-0.3,0.2-0.6,0.3-0.8,0.3c-0.3,0.1-0.8,0.3-1.5,0.6c-0.7,0.4-1.3,0.7-1.7,1l-1.7,0.8c-0.2,0,0.3-0.4,1.7-1.3
	c0.6-0.4,0.9-0.6,0.8-0.6l-1.3,0.6c-0.5,0.4-1,0.6-1.5,0.6c-0.8,0-1.8,0.3-2.8,0.8l-0.6,0.3c-0.1,0-0.1,0-0.1-0.1l0.7-1l1-0.8
	l-0.8,0.4c-0.3,0.1-0.5,0.2-0.6,0.3c-0.1,0-0.3,0-0.4-0.2c-0.1-0.1-0.3-0.2-0.6-0.2c-0.3,0-0.5,0.1-0.5,0.3c-0.1,0.1-0.5,0.4-1,0.6
	c-0.5,0.3-1,0.5-1.3,0.5V94c0-0.2,0.4-0.5,1.1-0.7l1-0.6l-0.1-0.1c-0.4,0-0.6,0.1-0.8,0.4c-0.2,0.2-0.4,0.3-0.6,0.3
	c-0.2,0-0.5,0.1-0.7,0.4c-0.3,0.3-0.5,0.4-0.7,0.4c-0.3,0-0.5,0.1-0.5,0.3l-0.2,0.2c-0.2,0,0-0.3,0.7-0.8c0.6-0.5,1.1-0.9,1.5-1.3
	c0.4-0.4,0.5-0.6,0.4-0.6c-0.1-0.1-0.2-0.1-0.2,0.1c0,0.2-0.1,0.3-0.3,0.3h-0.1c-0.1,0-0.9,0.4-2.2,1.2l-0.7,0.4
	c-0.1,0-0.1-0.1,0.1-0.3c0.2-0.2,0.5-0.4,0.7-0.6l1.9-1.4l1.4-1.1l0.7-0.5c0-0.1,0.1-0.2,0.2-0.2c0.1,0,0.3-0.1,0.6-0.4l0.1-0.4
	c-0.5,0.1-1,0.5-1.5,1c-0.4,0.1-0.8,0.2-1.3,0.2c-0.8,0-1-0.1-0.3-0.3c2.1-1.6,3.2-2.4,3.2-2.4v-0.1c-0.4,0.1-1.1,0.2-1.9,0.2
	c-5.5,0.4-9,0.9-10.4,1.5l-3.1,0.4c-1.4,0.1-2.3,0.3-2.6,0.6l-0.5,0.1c0-0.1-0.1-0.1-0.2-0.1c-0.2,0-0.4,0.1-0.7,0.3
	c-0.2,0.2-0.4,0.3-0.4,0.5c0,0.1,0.2-0.5-0.7-0.5c-0.4,0,0,0-0.3,0c-0.3,0-1.2,0-1.4-0.3c-0.5-0.4-1.7-0.6-2.2-1.7
	c-0.1-0.6-0.4-1.1-0.8-1.7c-0.4-0.6-0.8-1-1.1-1.2l-0.8-1.1c-0.1-0.2-0.6-0.7-1.5-1.4c-0.9-0.6-1.5-1.2-1.9-1.7
	c-0.3-0.5-0.5-1.1-0.5-1.9c0-0.4,0-0.7,0.1-1.1c0.1-0.4,0.2-0.7,0.5-1.1c0.5-0.9,1-1.4,1.4-1.4l0.2,0.1C89,76,89.2,76,89.5,76
	c0.4,0,0.6,0.1,0.6,0.2l0.2,0.2c0.3,0,0.5-0.8,0.6-2.3l0.3-2.6c0-0.1,0-0.2-0.1-0.3c0,0-0.1,0-0.1,0.2c-0.1,0.3-0.3,0.4-0.4,0.4
	c-0.1,0-0.1-0.2-0.1-0.5c0.1-0.3,0.1-0.5,0.2-0.6c0.1-0.1,0.1-0.2,0.2-0.2c0.1,0.1,0.1,0,0.2-0.2c0.1-0.2,0.1-0.4,0.1-0.7v-0.2
	c-0.1-0.1-0.2-0.3-0.3-0.3C91,69,91,68.8,91,68.3c0-0.3,0.1-0.5,0.2-0.5c0.1-0.1,0.2,0,0.4,0.1l0.1,0.1c0.1,0,0.2-0.3,0.2-0.8
	c0-0.6,0.1-1,0.2-1c0.1-0.1,0.2-0.7,0.3-1.9c0.1-0.5,0.1-1,0.1-1.6v-0.2l-0.3-0.2c-0.1,0-0.2,0-0.3-0.1c0-0.1,0-0.2,0-0.4
	c0-0.2,0.1-0.3,0.1-0.4c0.1-0.2,0.2-0.3,0.3-0.4c0.2,0,0.4-0.1,0.4-0.3c0.3-1.3,0.4-2.3,0.4-3.1v-0.4c-0.1,0-0.1,0.1-0.2,0.2
	c-0.1,0.1-0.1,0.1-0.1-0.2c0-0.1-0.1-0.2-0.2-0.3c-0.1,0-0.2-0.2-0.2-0.5c0-0.4,0.1-0.6,0.2-0.6c0.1,0,0.2-0.1,0.2-0.3
	c0.1-0.1,0.1-0.3,0-0.4c-0.1-0.1-0.2-0.4-0.2-0.8c0-0.6,0.1-1,0.2-1c0.1,0,0.2,0.1,0.2,0.3c0,0.1,0.1,0.2,0.2,0.2
	c0.1,0,0.2-0.2,0.3-0.4l0.1-1.3v-1.4c0.1-0.4,0.1-0.6,0-0.6c-0.2-0.1-0.2-0.2,0-0.3c0.1-0.1,0.1-0.3,0.2-0.6
	c0.1-0.4,0.1-0.8,0.1-1.5v-0.4l-0.1,0.2c-0.3,0.6-0.5,1-0.5,1c-0.1,0.1-0.2,0-0.1-0.3l0.3-3.6c0.1-1.1,0.2-2.4,0.4-3.8l0.2-2.4
	c0.1-1.2,0.3-1.9,0.4-2c0.3-0.2,0.4-0.4,0.4-0.4c0-0.1-0.1-0.1-0.3,0.1c-0.1,0.1-0.2,0.1-0.2,0v-3.5c0.1-0.1,0.1-0.3,0.1-0.6
	c0-0.2,0-0.3-0.1-0.3c-0.1,0-0.2,0-0.2-0.1c0-0.1,0.1-0.2,0.2-0.2c0.1,0,0.1-0.4,0-1.1c0-0.6-0.1-1-0.2-1c-0.1,0-0.2,0.1-0.3,0.2
	l-0.1,0.1c-0.1,0-0.2-0.4-0.1-1.1l0.1-1.6l0.1-0.8l-0.2-3.9c-0.1-0.5-0.2-0.8-0.3-1.1c-0.1-0.2-0.3-0.5-0.6-0.7
	C92.3,20,92,19.6,92,19.3c0-0.4,0.3-0.6,1-0.6l0.7-0.1c0.1-0.1,0.4-0.2,0.8-0.3c0.5,0,0.7,0,0.7,0S95.4,18.1,95.6,17.9z"/>
<path class="st1" d="M91.9,49.9"/>
<path class="st1" d="M91.5,49.8"/>
<path class="st1" d="M91.9,48.9"/>
<path class="st1" d="M92.1,47.1"/>
<path class="st1" d="M92.2,45.8"/>
<path class="st1" d="M135.8,97.7c-0.2,0-0.2,0-0.2,0.1"/>
<path class="st2" d="M181.2,35.1c0.2-0.1,0.7-0.1,1.3-0.1c1.2,0,2.4,0.2,3.8,0.6c1.2,0.3,2.7,1,4.5,2c0.2,0.2,0.4,0.2,0.7,0.2
	c0.2,0,0.3,0.1,0.5,0.2c0.2,0.1,0.3,0.3,0.3,0.4c0.5,0.8,0.7,1.2,0.8,1.3l1.2,1.8c0.2,0.4,0.4,0.6,0.5,0.6c0.2,0,0.2,0,0.2,0.1
	c0.3,0.7,0.5,1.3,0.5,1.7c0,0.5-0.2,0.8-0.6,0.9c-0.2,0-0.3,0.1-0.5,0.4c0,0.2-0.1,0.5-0.4,0.8c-0.3,0.3-0.5,0.5-0.6,0.5
	c-0.2,0-0.6,0.2-1.1,0.6c-0.5,0.4-0.8,0.9-1.1,1.5c-1.3,1.8-2.1,2.7-2.4,2.7c-0.2,0.1-0.4,0.3-0.8,0.7c-0.4,0.4-0.6,0.8-0.8,1.2
	c-0.1,0.1-0.2,0.2-0.3,0.4c-0.1,0.2-0.4,0.5-0.8,1c-0.3,0.3-0.7,0.6-1,1c-0.4,0.4-0.7,0.8-1,1.2c-0.3,0.2-0.7,0.7-1.2,1.5
	c-0.3,0.5-0.6,0.9-0.7,1.3l-0.9,1.3l-0.5,0.8l0.4,0.7c1.2,1.5,2.3,3.2,3.3,5c0.4,0.6,0.6,0.9,0.7,0.9c0.1,0,0.1-0.1,0.1-0.4v-0.4
	c0.2,0,0.2,0.1,0.2,0.4c0,0.2,0,0.5,0.1,0.9c0.1,0.4,0.2,0.6,0.4,0.6c0.1,0.2,0.1,0.2,0.1,0c0-0.4,0.1-0.6,0.2-0.6
	c0.2,0.1,0.2,0.2,0,0.4c0.1,0,0.2,0,0.2,0h0.1c0.1,0,0.2,0.4,0.5,1.2l0.6,1.8c0,0.4,0.7,1.3,2.2,2.8c1.3,1.5,2.4,3,3.3,4.6
	c0.4,0.5,0.6,0.7,0.7,0.7c0.2,0,0.2-0.1,0.2-0.4v-0.2c0.2,0,0.3,0.1,0.4,0.2c0.1,0.2,0,0.3-0.1,0.5l-0.1,0.1l0.5,0.8
	c0,0.1,0.4,0.6,1.3,1.7l0.5,0.6c0.2,0.2,0.4,0.5,0.8,0.8c0.4,0.3,0.5,0.4,0.5,0.2V85l0.1,0.5c0.2,0.1,0.2,0.2,0,0.4
	c-0.1,0-0.1,0-0.1,0.1c0,0.1,0,0.2,0.1,0.2c0,0.4-0.1,0.5-0.2,0.5c-0.2-0.1-0.3,0-0.4,0.1c-0.1,0.2,0,0.3,0.1,0.4
	c0.1,0,0.1,0.1,0.1,0.4c-0.1,0.1-0.1,0.2-0.1,0.2c0,0.1,0.1,0.2,0.1,0.2c0.1,0.2,0,0.5-0.4,0.7c-0.4,0.2-0.7,0.4-0.9,0.4
	c-0.1,0-0.2,0-0.2,0.1c0,0.2-0.1,0.2-0.2,0.2c-0.2,0-0.6,0.2-0.9,0.5l-0.7,0.4c0-0.1-0.2-0.1-0.5-0.1c-0.2,0-0.3-0.1-0.5-0.2
	c-0.2-0.1-0.4-0.2-0.5-0.3c-0.6-0.4-1.1-0.6-1.5-0.7c-0.8-0.1-1.6-0.2-2.5-0.5c-0.9-0.2-1.5-0.5-1.7-0.7c-1.3-0.9-2.2-1.4-2.8-1.7
	c-0.4,0-0.7,0-0.8,0.1c-0.2,0.1-0.4,0.1-0.6,0.1c-0.2,0-0.2-0.1,0-0.3l0.2-0.1c0-0.1-0.1-0.2-0.2-0.2c-0.1-0.1-0.2-0.2-0.3-0.4
	c-0.6-0.5-1-1.4-1.2-2.5c0-0.6-0.1-0.8-0.2-0.8c-0.1,0-0.2-0.1-0.3-0.4c-0.1-0.3-0.2-0.5-0.2-0.6c0-0.2-0.1-0.3-0.2-0.5
	c-0.2-0.2-0.3-0.4-0.2-0.5c0-0.2-0.1-0.3-0.4-0.5l-0.5-0.5l-0.4-0.7c-0.3-0.3-0.5-0.7-0.5-1.1c0-0.4-0.2-0.8-0.7-1.3
	c-0.6-0.4-1-0.9-1.3-1.5c-0.7-1.3-1.3-2.2-1.8-2.7c0-0.1-0.5,0.7-1.4,2.4l-3,5.8l-1.8,3.4c-0.1,0.2-0.4,0.7-0.9,1.4
	c-0.1,0.2-0.5,0.8-1.2,1.9c-0.5,0.5-0.8,0.9-0.9,1.2c-0.7,1.2-1.2,1.8-1.4,1.8c-0.2,0-0.2,0-0.2-0.1c-0.5-0.5-0.8-0.6-0.8-0.4
	c0,0.1-0.2,0.1-0.6,0.1c-0.3,0-0.6,0.2-0.8,0.5c-0.2,0.4-0.4,0.6-0.6,0.7c-0.2,0.2-0.4,0.3-0.5,0.2c-0.1-0.1-0.1-0.2,0-0.5
	c0.2-0.1,0.4-0.2,0.4-0.5c0.2-0.2,0.3-0.4,0.4-0.6c0.3-0.2,0.4-0.4,0.3-0.5c-0.1-0.1-0.3-0.1-0.5,0.1c-0.2,0.1-0.3,0.1-0.4,0.2
	c-0.1,0-0.1,0.1-0.1,0.2c0,0.2-0.2,0.4-0.7,0.8c-0.5,0.4-0.7,0.5-0.8,0.4c0-0.2-0.2-0.2-0.6-0.2c-0.3,0-0.5-0.1-0.5-0.2
	c0-0.2-0.1-0.4-0.2-0.5c-0.2-0.1-0.4-0.2-0.4-0.4c0-0.1-0.1-0.2-0.4-0.4c-0.3-0.2-0.5-0.5-0.6-1c0-0.3-0.1-0.6-0.4-0.8
	c-0.2,0-0.2-0.1-0.2-0.2l-0.2-0.7c-0.3-0.4-0.5-1.1-0.5-2.1c0-0.6,0.1-1,0.2-1.2c0-0.2-0.1-0.4-0.2-0.6c-0.2-0.2-0.3-0.3-0.1-0.5
	c0-0.2,0-0.4-0.1-0.5c-0.2,0-0.2-0.1,0.2-0.4c0.2-0.2,0.3-0.5,0.2-0.7c-0.1-0.2-0.2-0.4-0.2-0.5c0.2-0.6-0.7-1.8-2.7-3.5l-2-1.7
	c0-0.1,0-0.1,0.1-0.1c0.1,0,0.4,0.2,0.9,0.6c0.5,0.4,1.1,0.8,1.9,1.2l-0.6-0.6l-0.6-0.6c0.2,0,0.4,0.1,0.6,0.2l0.5,0.2
	c0.2,0-0.4-0.4-1.9-1.3l-1.1-0.4c-0.2-0.2-0.3-0.2-0.4-0.2c-0.3-0.2-0.6-0.3-0.9-0.4c-0.3-0.1-0.4-0.2-0.4-0.3h0.6
	c0,0.1,0.1,0.1,0.4,0.1c0-0.1-0.1-0.1-0.2-0.1c-0.2,0-0.2-0.1-0.2-0.4c0-0.1,0-0.1,0.1-0.1c0.1,0,0.2,0.1,0.2,0.1
	c0,0.2,0.2,0.4,0.6,0.4c0.3,0,0.8,0.1,1.4,0.4c0.6,0.4,0.9,0.5,0.9,0.4l-0.1-0.1c-0.1-0.2-0.2-0.2-0.5-0.2c-0.1,0-0.3-0.1-0.6-0.2
	c-0.3-0.2-0.6-0.2-0.8-0.2l-0.6-0.2c0-0.1,0.1-0.1,0.2-0.1l1.7,0.5l3.9,1.3l3.4,0.5h0.2c0.3,0,0.6-0.2,0.9-0.7c0.4-0.5,0.7-1,1-1.5
	c0.3-0.6,0.5-0.9,0.6-1.1l3.4-5.6c0.9-1.2,1.3-2,1.3-2.6c0-0.2,0-0.2-0.1-0.2l0.5-0.7l0.6-1.2l0.2-0.8l-0.5-0.8
	c-0.2-0.2-0.8-1.1-2-2.6l-0.9-1.2c-0.9-0.9-1.5-1.9-2-2.7l-2.6-3.3c-0.6-0.6-1.6-1.8-2.8-3.4c-1.4-1.7-2.2-2.7-2.5-3.2
	c-0.2-0.2-0.5-0.3-0.7-0.5c-0.2-0.2-0.5-0.3-0.7-0.5c-0.8-0.4-1.2-0.7-1.2-0.9l0.1-0.1c0.2,0,0.2-0.2,0.2-0.5
	c-0.1-0.2,0-0.4,0.2-0.4c0.2,0,0.4-0.1,0.6-0.2l0.4-0.1c0.1,0,0.2-0.1,0.2-0.2c0.1-0.1,0.2-0.2,0.4-0.2c0.2,0,0.4-0.1,0.4-0.2
	c0-0.2,0.2-0.2,0.5-0.2h0.6l0.9,0.2c1,0.4,2.6,0.6,4.8,0.6c2.6,0.3,3.9,0.6,3.9,0.7l0.7,0.6c0.2,0.1,0.4,0.2,0.6,0.3
	c0.2,0.1,0.4,0.2,0.4,0.3c0,0.8-0.2,1.2-0.5,1.2c0,0.2,0.2,0.5,0.6,0.9l1.5,2.1l1.2,1.7l3.5,4.6l0.2,0.4l0.5-0.7
	c0.1-0.1,0.2-0.2,0.2-0.4c0.1-0.2,0.3-0.4,0.6-0.7c0.2-0.2,0.3-0.4,0.5-0.7c0.2-0.3,0.4-0.7,0.6-1.1l0.9-1.5
	c0.7-1.3,1.1-2.2,1.3-2.8c0-0.2,0.2-0.6,0.5-1.1c0.3-0.5,0.6-0.8,0.9-1c0.1-0.1,0.2-0.2,0.4-0.2c0.2-0.1,0.3-0.2,0.4-0.4l0.2-0.6
	c0.2,0,0.4-0.3,0.5-0.8c0-0.3,0.2-0.7,0.5-1.1l0.5-0.7l-0.5-0.6c-0.8-0.8-1.2-1.4-1.2-1.8c0-0.2,0.1-0.3,0.2-0.5
	c0.3-0.2,0.5-0.2,0.5-0.2S180.9,35.1,181.2,35.1z"/>
<path class="st3" d="M211.9,43.7c0-0.2,0.2-0.4,0.5-0.4c0.5,0,0.8,0.1,1.1,0.2c0.2,0.3,0.4,0.4,0.8,0.2c0.2-0.2,0.2-0.2,0.2-0.1
	c0,0.2,0,0.3,0.1,0.3c0.1,0,0.5,0,1.2,0.1l1.7,0.2c0.7,0,1.7,0.3,3.1,0.9c2,0.9,3.1,1.5,3.3,1.8c0.3,0.2,0.5,0.3,0.6,0.4
	c0.1,0.1,0,0.2-0.2,0.3c-0.5,0.2-0.8,0.3-1,0.5c-0.2,0.2-0.3,0.5-0.3,1v0.9c-0.4,0.4-0.8,2.8-1.3,7.3c-0.7,5.3-1.1,9-1.1,11.1
	l-0.1,2.8c-0.2,1.7-0.2,4.1-0.2,7.2c0,2.4,0,3.8,0.1,4.1c0.2,4.2,0.6,6.5,1.1,7c0.2,0.5,0.4,1,0.4,1.5v0.9c-0.1-0.1-0.1,0-0.1,0.4
	c0,0.2,0,0.4,0.1,0.6c0-0.4,0.1-0.6,0.4-0.6c0.2,0,0.4,0.4,0.4,1.2c0,0.8-0.1,1.6-0.4,2.4c-0.2,0.5-0.5,0.8-0.7,1.1
	c-0.2,0.3-0.8,0.6-1.7,1.1c-0.8,0.6-1.5,0.8-2.1,0.8c-0.6,0-0.9-0.1-0.9-0.2l-0.5-0.6c-0.2-0.2-0.4-0.3-0.4-0.5v-0.1
	c0-0.2-0.4-0.4-1.2-0.5l-1.2-0.4v-0.1c0-0.1,0.1-0.1,0.2-0.1c0.2,0.2,0.4,0.2,0.4,0c0-0.2-0.1-0.3-0.4-0.5c-0.3-0.2-0.9-0.2-1.7-0.2
	c-1.1-0.2-1.8-0.4-2.1-0.6c-0.9-1.9-1.3-4.3-1.3-7.1c0-1.9,0.2-3.7,0.5-5.6v-0.9c0-0.5,0.1-1.1,0.2-1.9c0.2-0.8,0.4-2.2,0.6-4.1
	l0.7-6.7l0.4-3l0.1-1.9c0.2-0.2,0.2-1.1,0.2-2.8l0.2-3.2c0.2-0.6,0.3-2.3,0.4-5c0.1-1.8,0.1-3.9,0.1-6.4c0-1.2,0-1.8,0.1-1.8
	l0.4,1.4l0.2,1.5v-1.5c-0.2-0.4-0.2-0.8,0-1.3c0.4,0,0.6,0.8,0.7,2.5l0.1,1.7l-0.1-2v-2l-0.7-0.6c-0.6-0.4-0.8-0.6-0.8-0.6
	S211.9,44,211.9,43.7z"/>
<path class="st4" d="M214.4,27c0.5-0.2,0.9-0.4,1.4-0.4h0.6c1.1,0.1,2.2,0.5,3.2,1.1c1,0.7,1.8,1.4,2.2,2.3c0.4,0.9,0.6,1.9,0.7,3
	V34c0,0.9-0.4,2-1.1,3.3c-0.7,1.3-1.3,2-1.8,2.2l-1.2-0.5c-0.3-0.2-0.7-0.4-1.1-0.4c-0.8,0.6-1.7,0.9-2.7,1.1
	c-0.8,0-1.5-0.2-2.1-0.5c-0.5-0.2-0.9-0.6-1.3-0.9c-0.4-0.4-0.8-0.9-1.3-1.5c-0.9-1.1-1.3-2.3-1.3-3.7c0-1.4,0.5-2.6,1.4-3.4
	c1.5-1.3,2.4-2,2.8-2c0.3,0,0.5,0,0.5,0S213.7,27.4,214.4,27z"/>
<path class="st5" d="M262.8,40.9l2.1-0.2c1.4,0,3.4,0.4,6,1.2c2.7,1.1,4.5,2.2,5.3,3.2l1.8,1.9c0.2,0.2,0.4,0.3,0.6,0.5
	c0.2,0.2,0.2,0.3,0.1,0.4l0.2,0.5c0.4,0.5,1.2,1.8,2.4,4l0.5,1.8c0.1,0.3,0.1,1.5,0.1,3.4c0,1.9-0.1,3.5-0.2,4.7l-0.2,5
	c-0.1,1-0.4,3.4-0.8,7.2c-0.4,2.9-0.7,5.5-0.8,7.8c0,0.6,0,1.1,0.1,1.3c0.1,0.2,0.2,0.5,0.5,0.7c0.4,0.3,0.6,0.6,0.6,0.9
	c0,0.3,0.1,0.6,0.4,0.7c0.2,0.5,0.2,0.8,0.2,1.1l0.1,0.4c0,0.3-0.1,0.6-0.4,0.8c-0.3,0.2-0.5,0.5-0.5,0.8c0,0.2,0,0.5-0.1,0.6
	c0,0.2-0.2,0.3-0.4,0.4c-0.4,0.2-0.7,0.4-0.9,0.7c-0.2,0.3-0.6,0.9-0.9,1.9c-1,2.1-1.9,3.2-2.7,3.2c-0.2,0-0.4,0.1-0.6,0.2
	c0,0.1,0.1,0.1,0.4,0.1l0.6-0.2l-0.6,0.4c-0.3,0.2-0.5,0.2-0.6,0h-0.4c-0.8,0-1.5,0.2-2,0.6c-0.3,0.2-0.7,0.4-1.2,0.4
	c-0.4,0-0.6-0.1-0.6-0.4c0-0.2,0.1-0.3,0.4-0.5l0.2-0.2c0.2-0.6,0.4-0.9,0.6-1.1h-0.1c-0.2,0-0.4,0.1-0.6,0.2
	c-0.1,0.6-0.5,0.8-1.2,0.8c-0.3,0-0.6,0-0.7-0.1l-0.9-0.2l0.5-0.5c0.3-0.2,0.4-0.2,0.1-0.2c-0.5,0-1-0.3-1.7-0.9
	c-0.2-0.2-0.4-0.9-0.4-2c0-0.5-0.1-0.9-0.2-1.2c-0.1-0.3-0.4-0.6-0.8-0.9c-0.3-0.5-0.4-0.7-0.4-0.7c0.2,0,0.1-0.1-0.2-0.2
	c-0.3-0.1-0.5-0.2-0.5-0.4c0-0.2-0.2-0.4-0.5-0.7c-0.5-0.5-0.7-0.8-0.7-1.1c0-0.2,0-0.3,0.1-0.4c0.2-0.1,0.3-0.8,0.5-2.1
	c0-0.9,0.1-1.7,0.4-2.1c-0.1-0.2-0.3-0.6-0.8-1c-0.4-0.4-0.8-0.7-1-0.9c-0.2-0.2-0.2-0.2,0-0.2c0.2,0,0.5,0.3,1.2,0.9
	c0.2,0.2,0.4,0.3,0.6,0.5c0.2,0.2,0.4,0.3,0.5,0.3c0-0.2-0.4-1.1-1.1-2.5c-0.2-0.5-0.6-1.1-1-1.7c-0.4-0.5-0.7-0.9-0.9-1.2
	c-0.2-0.2-0.4-0.4-0.4-0.6v-0.1c0-0.1,0-0.2-0.1-0.2c0-0.1-0.1-0.2-0.2-0.4l-0.6-0.6c0-0.4,0.4-0.1,1.3,0.9c0.5,0.5,1,0.8,1.3,0.8
	c0-0.3-0.4-0.9-1.2-1.7c-0.6-0.6-0.9-0.9-0.7-0.9l0.2,0.1l-0.4-0.5c-0.4-0.4-0.6-0.6-0.6-0.7h0.1c0.2,0,0.5,0.2,0.7,0.5l1.5,0.7
	c0.2,0.2,0.3,0.2,0.2,0l-1.1-1.1c-0.4-0.2-0.6-0.3-0.7-0.4c-0.1-0.1,0-0.1,0.2-0.1l1.7,0.8c1.5,1,2.7,1.7,3.5,2.1
	c0.8,0.4,1.2,0.5,1,0.2l-0.1-1.2l0.1-2c0.2-1.7,0.3-3,0.4-3.9c0.1-0.9,0.3-1.5,0.4-1.5c0.2-0.2,0.4-0.6,0.4-0.9
	c0-0.4,0.1-0.6,0.4-0.6c0.2,0,0.4-0.1,0.4-0.4c0-0.2-0.1-0.3-0.2-0.5c-0.2-0.2-0.2-0.4-0.2-0.8c0-0.4-0.1-0.8-0.3-1.4
	c-0.2-0.5-0.3-0.9-0.3-1.2c0-0.6,0.1-0.9,0.2-0.9c0.2,0,0.2,0,0-0.1c-0.3-0.6-0.5-1.3-0.5-2c0-0.2,0.1-0.4,0.4-0.4h0.1
	c0.3,0,0.5-0.2,0.5-0.5v-1.9c0-1.2-0.2-1.8-0.6-1.9c-0.2-0.2-0.4-0.5-0.4-0.9c0-0.6-0.4-1.4-1.1-2.2c-0.7-0.8-1.4-1.4-2.1-1.6
	c-0.2-0.1-0.5-0.1-0.9-0.1c-2,0-4.4,1.1-7.2,3.4c-1.3,1.1-2.3,2.1-3.1,3.1c-0.2,0.4-0.3,0.6-0.5,0.6c-0.2,0-0.4,0.1-0.6,0.4
	c-0.2,0.5-0.4,0.9-0.6,1.1c-0.3,0.3-0.6,0.7-0.7,1.2l-0.9,1.9c-0.3,0.6-0.5,1.2-0.6,1.7c-0.1,0.5-0.2,1.2-0.2,2.1l-0.2,3
	c-0.2,0.5-0.4,2.2-0.4,5c0,2.8-0.2,4.8-0.5,6c-0.2,1.4-0.5,3.6-0.9,6.6l-0.4,4.7c0,0.9,0,1.7-0.1,2.2c-0.1,0.5-0.2,0.8-0.5,0.8h-0.1
	h-0.1c-0.1,0-0.1,0.1-0.2,0.2c0,0.1,0,0.3,0.1,0.4c0,0.1,0,0.2-0.1,0.2c0,0.1-0.1,0.2-0.1,0.2c-0.2,0-0.2,0.1-0.2,0.2
	c0,0.2,0,0.2-0.1,0.2c-0.1,0-0.2-0.1-0.2-0.2c-0.1-0.1-0.1-0.3-0.1-0.4c-0.1-0.5-0.2-0.7-0.4-0.7l-0.2,0.8c0,0.5,0,0.7-0.1,0.8
	c-0.4,0-0.8-0.2-1.1-0.7c-0.1-0.3-0.6-0.6-1.4-0.7l-1.5-0.2c-0.3-0.3-0.5-0.7-0.6-1.2c-0.2-0.5-0.4-0.7-0.6-0.6
	c-0.2,0-0.4,0-0.4-0.1c0-0.2-0.2-0.6-0.5-1.2c-0.3-0.6-0.5-1.1-0.5-1.3c0-0.3-0.1-0.5-0.2-0.5l-0.4-0.7c-0.1-0.4-0.3-0.7-0.6-0.8
	c-0.4-0.3-0.6-0.6-0.6-0.7c0-0.2-0.2-0.5-0.5-0.7c-0.3-0.2-0.5-0.4-0.5-0.5c0-0.1-0.1-0.1-0.2-0.1c-0.1,0-0.3,0-0.4-0.2h-0.2
	c-0.1,0.2-0.2,0.2-0.4,0c-0.2-0.2-0.4-0.4-0.6-0.4h-0.4c0-0.1,0.1-0.1,0.4-0.1h0.1c0.2,0,0.2-0.3,0.2-0.9c-0.1-0.2,0-0.8,0.4-1.8
	c0.2-0.9,0.3-1.5,0.5-1.7c0.4-1.3,1-4.3,1.8-8.7c0.2-0.6,0.6-2.2,0.9-4.7l0.5-2.6l0.6-2.8c0.9-3.7,1.3-6.4,1.4-8.2
	c0.2-1.8,0.4-3,0.7-3.5c0.2-0.2-0.9-0.4-3.2-0.8c-1.3-0.2-2-0.4-2-0.6c0-0.1,0.3-0.1,0.8-0.1c0.5,0,0.9,0,1.1-0.1
	c0.3-0.1,0.7-0.4,1.1-0.8c0.4-0.5,0.6-0.8,0.6-0.9c0-0.4,0.2-0.7,0.6-1c0.4-0.3,0.9-0.4,1.5-0.4h0.5c0.9,0.3,1.7,0.5,2.2,0.5h0.2
	c0.3,0.1,0.5,0.2,0.6,0.4c0.2,0.2,1.1,0.8,3,1.5l2.6,0.9l1.5-1.2c0.7-0.5,1.3-0.9,1.7-1.2c0.4-0.4,0.7-0.6,1.1-0.8
	c1.4-0.7,2.7-1.3,3.8-1.7c1.7-0.8,2.5-1.2,2.5-1.2S262.1,41,262.8,40.9z"/>
<path class="st6" d="M295.4,21.4c0.1-0.1,0.8,0,2.1,0.2l2.4,0.5c0.9,0.4,2.5,0.9,4.8,1.7c0.6,0.2,1,0.4,1.3,0.8
	c0.3,0.4,0.7,1.1,1.3,2.2c0.3,0.6,0.5,1.3,0.5,1.9c0,0.4-0.1,0.8-0.4,1.1c-0.3,0.4-0.7,0.8-1.4,1.2c-0.2,0.2-0.4,0.5-0.5,0.6
	c-0.1,0.2-0.1,0.6-0.1,1.1l-0.4,5.6c-0.2,1.1-0.4,7.1-0.8,18.1l-0.1,4l1.1-0.9l10-5.3c0.7-0.4,2.2-1.2,4.5-2.4
	c2.3-1.2,3.9-2.2,4.7-2.9l0.6-0.6l-0.7-1.2l-0.9-1.2l0.7,0.2c0.5,0.1,0.9,0,1.4-0.4c0.5-0.4,1.1-0.6,1.7-0.6c0.3,0,1,0.2,2.1,0.5
	c0.6,0.2,1.1,0.7,1.5,1.3c0.3,0.6,0.7,1.1,1.3,1.5c0.9,0.9,1.6,1.7,2,2.4c0.3,0.5,0.7,0.9,1.2,1.3c1.1,1.1,1.7,2,1.7,2.8v0.2
	c-0.3,1.1-0.6,1.9-0.9,2.4c-0.3,0.5-0.9,0.9-1.7,1.3c-0.5,0.2-0.8,0.5-1.1,0.6c-0.3,0.2-0.5,0.3-0.7,0.3l-0.1-0.1l-0.9,0.2
	c-2.3,0.9-3.6,1.3-4,1.1h-0.1c-0.3-0.1-0.7,0-1.2,0.4c-0.9,0.6-1.8,0.9-2.7,0.9c-0.3,0-0.5-0.1-0.5-0.2l0.6-0.5c0.1,0,0.1,0,0.1-0.1
	c0-0.1-0.1-0.1-0.2-0.1c-0.3-0.1-0.4-0.2-0.4-0.2c0-0.1,0.4-0.4,1.3-0.8l1.2-0.7l-0.7-0.1c-0.5-0.1-1-0.1-1.5,0
	c-0.4,0.2-0.6,0.3-0.8,0.3c-0.1,0-0.1-0.1,0.2-0.4l0.2-0.2l-1.2,0.2c-1,0.2-2.6,0.3-4.6,0.5c-5.4,0.6-9,1.1-10.6,1.4
	c-1.7,0.3-2.5,0.8-2.5,1.5c0,0.5,0,0.7,0.1,0.7l19.1,14.8c2.3,1.8,4.1,3.2,5.4,4l2.2,1.5c1.3,0.8,2.2,1.2,2.8,1.2
	c0.1,0,0.4,0.1,1.1,0.2c0.5,0.1,0.9,0.2,1.3,0.5c0.5,0.2,0.9,0.7,1.3,1.3c0.4,0.6,0.6,1.1,0.6,1.4c0.1,0.2,0.3,0.6,0.6,1.1
	c0.3,0.5,0.7,1,1.2,1.5c1,1,1.7,2.1,2.1,3.1l0.7,1.8c0.2,0.2,0.2,0.5,0.2,0.8c0,0.3-0.1,0.7-0.2,1.3c-0.2,0.6-0.3,1-0.4,1.1
	l-0.6,2.2l-1.1,0.5c-0.9,0.4-1.8,0.6-2.5,0.6c-0.6,0-1.1-0.1-1.3-0.4c-0.3-0.4-1-0.7-2-0.8c-1.4-0.3-2.5-0.9-3.3-1.7
	c-0.4-0.4-1-0.7-1.8-0.9l-1.5-0.6c0.2-0.2,0.1-0.3-0.2-0.4c-0.2-0.1-0.4-0.2-0.4-0.5c0.1-0.1,0.1-0.2,0-0.3
	c-0.1-0.1-0.2-0.2-0.4-0.2c-0.2,0-0.3,0-0.4-0.1c-0.1-0.1-0.1-0.2,0-0.2c0-0.2-0.1-0.4-0.4-0.8c-0.2-0.4-0.5-0.6-0.7-0.6l-0.1,0.4
	l-4.5-7.4l-1.1-1.1l-15.4-16l-0.6-0.2l0.1,9.9c0.1,3.2,0.2,5.7,0.3,7.5c0.1,1.8,0.2,2.8,0.2,3l0.1,1.5c0,0.9-0.1,1.5-0.2,2
	c-0.5,1.1-0.7,1.8-0.7,2c-0.1,0.8-0.4,1.6-1,2.4c-0.6,0.8-1.2,1.4-1.7,1.7c-0.5,0.1-1.1,0.5-2,1.2c-0.8,0.4-1.6,0.6-2.4,0.6
	c-0.6,0-1.1-0.1-1.5-0.2l-1.7-2.1c-0.5-0.7-0.9-1.9-1.1-3.6c-0.2-1.7-0.3-5.6-0.3-11.6v-5c0.2-0.2,0.2-4.8,0.2-13.9l0.5-33.1
	l0.2-8.9l-0.8-0.9c-0.2-0.2-0.3-0.5-0.5-0.6c-0.2-0.2-0.3-0.3-0.3-0.4c0-0.2,0.6-0.4,1.8-0.5c1.1,0,1.7,0,1.7,0
	S295.3,21.5,295.4,21.4z"/>
<path class="st7" d="M441.2,103.4l7,6.5c1.6,1.6,3.8,2.4,6,2.3l0,0c2.2,0,4.3-1,5.8-2.5l15.7-16.8c3.1-3.4,3-8.6-0.4-11.8
	l-24.8-23.1l21-22.6c1.3-1.3,2.1-3,2.3-4.8l0.2-0.2l-0.2-0.2c0-0.3,0-0.5,0-0.8c0-2.3-0.9-4.5-2.5-6l-16.1-15
	c-1.6-1.5-3.6-2.2-5.8-2.2l0,0c-0.4,0-0.7,0-1.1,0L448,5.9l-0.5,0.5c-1.6,0.4-3,1.3-4.2,2.5l-21,22.6L397.5,8.4
	c-3.3-3.1-8.6-3-11.7,0.4l0,0L370,25.6c-3.1,3.4-2.9,8.6,0.4,11.8l8,7.5l8.7,8.1l8,7.6l-17.4,18.7l0,0l0,0l0,0v0.2l0,0
	c0,0,0,0.1,0,0.2l0,0l0,0v0.2l0,0c-0.1,0.2-0.1,0.5-0.2,0.7l-3.5,27.1c-0.2,1.7,0.9,3.2,2.5,3.6v0.2h2l0,0l26.3-5.3h0.2
	c0.8-0.2,1.6-0.7,2.1-1.5l16.1-17.9l17.2,16"/>
<path class="st8" d="M453.6,104c-0.4,0-0.8-0.1-1.1-0.4l-5.6-5.2l9.6-10.4c0.1,0,0.1-0.1,0.2-0.2c1.1-1.5,0.8-3.6-0.7-4.7
	c-1.3-1-3.2-0.8-4.4,0.3l-9.7,10.4l-3.8-3.5l9.7-10.4l0,0c0.6-0.7,0.9-1.6,0.9-2.5c0-0.9-0.4-1.7-1.1-2.3c-0.7-0.6-1.5-0.9-2.4-0.9
	c-0.9,0-1.7,0.4-2.4,1.1l-9.7,10.4l-5.6-5.1l17.9-19.2l24.8,23.1c0.6,0.6,0.6,1.6,0,2.3l-15.7,16.8c-0.3,0.3-0.7,0.5-1.1,0.5
	L453.6,104z"/>
<path class="st8" d="M403.5,38.7L403.5,38.7c1.2-1.4,1.1-3.5-0.3-4.7c-0.6-0.5-1.4-0.8-2.2-0.8c-0.9,0-1.7,0.4-2.3,1l0,0L389,44.5
	l-3.8-3.5l9.7-10.4l0,0c1.1-1.3,1.1-3.3-0.2-4.6c-0.7-0.7-1.6-1-2.5-1c-0.8,0-1.7,0.4-2.2,1l0,0l-9.7,10.4l-5.6-5.2
	c-0.6-0.6-0.6-1.7,0-2.3l15.7-16.9c0.3-0.3,0.7-0.5,1.1-0.5l0,0c0.4,0,0.8,0.2,1.1,0.4l24.8,23.1l-17.9,19.2l-5.6-5.2l9.6-10.4
	L403.5,38.7z"/>
<polygon class="st9" points="438.6,24.2 457,41.4 445,54.2 445,54.2 422.6,78.3 422.4,78.5 405.2,97 386.8,79.8 "/>
<polygon class="st10" points="398.1,99.9 382.5,103 384.6,87 "/>
</svg>
