<?xml version="1.0" encoding="utf-8"?>
<!-- Generator: Adobe Illustrator 16.0.0, SVG Export Plug-In . SVG Version: 6.00 Build 0)  -->
<!DOCTYPE svg PUBLIC "-//W3C//DTD SVG 1.1//EN" "http://www.w3.org/Graphics/SVG/1.1/DTD/svg11.dtd">
<svg version="1.1" id="图层_1" xmlns="http://www.w3.org/2000/svg" xmlns:xlink="http://www.w3.org/1999/xlink" x="0px" y="0px"
	 width="595.279px" height="841.891px" viewBox="0 0 595.279 841.891" enable-background="new 0 0 595.279 841.891"
	 xml:space="preserve">
<path fill="#6E7F94" d="M249.777,375.774c0.105-0.105,0.316-0.105,0.633-0.105c0.527,0,0.844,0,1.055,0.105l2.003,0.105
	c0.421,0.105,0.737,0.211,1.265,0.422c0.422,0.211,0.843,0.316,1.159,0.527c1.687,0.738,2.847,1.16,3.479,1.371
	c1.793,0.527,2.53,0.738,2.319,0.632c0.422,0.316,0.738,0.422,1.16,0.422c0.105,0,0.211,0.105,0.211,0.421
	c0,0.105,0.104,0.316,0.315,0.527c0.316,0.105,0.422,0.421,0.422,0.843l0.422,1.054l0.422,0.843c0.105,0.527-0.105,1.16-0.633,2.108
	c-0.527,0.843-0.948,1.37-1.37,1.476c-0.316,0.105-0.527,0.316-0.633,0.633c-0.105,0.21-0.105,0.632-0.211,1.265
	c0,0.633-0.105,1.265-0.211,2.108c-0.211,1.897-0.421,2.952-0.421,3.268c-0.105,0.421-0.211,1.37-0.316,2.741l-0.738,8.011
	l-0.211,3.689l-0.211,3.9c-0.105,0.633-0.316,1.792-0.421,3.374l-0.316,2.635c-0.105,0.211-1.371,1.476-1.477,3.584
	c-0.421,5.481,0.422,9.277,0,11.49l-0.421,3.374c0,0.526,0,0.948-0.105,1.265s-0.105,0.633-0.105,0.844
	c0,0.21,0.211,0.315,0.632,0.315c0.105,0.105,0.738,0.105,1.688,0.105c8.011-0.632,14.02-1.159,18.025-1.687
	c2.214-0.105,3.584-0.316,4.111-0.422s0.844-0.421,1.159-0.737c0.422-0.633,0.738-1.055,0.844-1.055l0.211,0.105
	c0.527,0.316,1.159,0.422,1.897,0.422h0.422c0.316-0.105,0.632-0.105,0.843,0s0.527,0.105,0.738,0
	c0.105-0.105,0.422-0.316,0.843-0.527c0.527-0.211,0.949-0.421,1.266-0.526c0.422-0.105,1.37-0.316,2.951-0.422
	c0.633,0,1.055,0,1.371-0.105c0.315,0,0.526-0.105,0.632-0.105c0.633-0.105,1.476,0,2.53,0.527c0.948,0.421,1.792,1.054,2.425,1.687
	c0.421,0.632,0.843,0.948,1.265,1.265l2.108,2.53l1.476,1.687v2.636c0,0.421-0.105,0.948-0.211,1.687l-0.737,1.581
	c-0.211,0.843-0.844,1.581-1.792,2.319c-0.316,0.105-0.633,0.105-1.055,0c-0.105-0.105-0.422-0.105-0.738-0.105l-0.843,0.211
	l-0.844,0.21h-0.105c0-0.104-0.105-0.21-0.315-0.104c-0.211,0.104-0.527,0.21-1.055,0.315c-1.897,0.211-2.74,0.527-2.74,0.738
	c0,0.105-0.211,0.316-0.738,0.527s-1.055,0.422-1.581,0.422c-0.422,0-0.633,0.104-0.844,0.315c0,0.105-0.316,0.105-0.737,0.105
	l-0.422,0.105c0,0.105-0.211,0.316-0.738,0.527s-0.948,0.422-1.265,0.422c-0.105,0-0.316,0.105-0.422,0.316
	c0,0.105-0.105,0.21-0.316,0.21l-1.159,0.422l-5.061,2.214l-1.792,0.633l-1.265,0.422l-1.054,0.421l-1.055,0.316
	c-0.105,0.105-0.105,0.105-0.211,0.105c0,0,0-0.105,0.105-0.211c0.738-0.422,1.37-0.737,1.897-0.843l2.636-1.371l3.689-1.687
	c2.846-1.687,4.533-2.74,5.165-3.268c0.105-0.105,0.211-0.105,0.211-0.211c0,0,0-0.105-0.105-0.105
	c-0.211,0.105-0.527,0.211-0.737,0.422c-0.316,0.211-0.527,0.316-0.633,0.316c-0.316,0-0.527,0.105-0.633,0.211l-2.529,1.476
	c-1.897,0.948-2.952,1.476-3.058,1.581s-0.316,0.211-0.527,0.316c-0.211,0-0.315,0-0.315-0.211l1.054-0.738
	c0.633-0.315,1.054-0.632,1.265-0.843c0-0.316,0.105-0.422,0.422-0.422c0.105,0,0.211-0.105,0.527-0.422
	c0.105-0.105,0.105-0.211,0-0.211c-0.316,0.211-0.633,0.316-0.844,0.316c-0.316,0.105-0.843,0.316-1.581,0.633
	c-0.738,0.422-1.37,0.737-1.792,1.054l-1.792,0.844c-0.211,0,0.316-0.422,1.792-1.37c0.633-0.422,0.949-0.633,0.844-0.633
	l-1.371,0.633c-0.526,0.421-1.054,0.632-1.581,0.632c-0.843,0-1.897,0.316-2.951,0.844l-0.633,0.316c-0.105,0-0.105,0-0.105-0.105
	l0.738-1.055l1.054-0.843l-0.843,0.421c-0.316,0.105-0.527,0.211-0.633,0.316c-0.105,0-0.316,0-0.422-0.211
	c-0.105-0.104-0.316-0.21-0.633-0.21c-0.315,0-0.526,0.105-0.526,0.315c-0.105,0.105-0.527,0.422-1.055,0.633
	c-0.526,0.316-1.054,0.527-1.37,0.527v0.422c0-0.211,0.422-0.527,1.159-0.738l1.055-0.633l-0.105-0.105
	c-0.422,0-0.633,0.105-0.844,0.422c-0.211,0.211-0.421,0.316-0.632,0.316s-0.527,0.105-0.738,0.422
	c-0.316,0.316-0.527,0.422-0.738,0.422c-0.315,0-0.526,0.104-0.526,0.315l-0.211,0.211c-0.211,0,0-0.316,0.737-0.843
	c0.633-0.527,1.16-0.949,1.582-1.371c0.421-0.421,0.526-0.632,0.421-0.632c-0.105-0.105-0.211-0.105-0.211,0.105
	s-0.104,0.315-0.315,0.315h-0.105c-0.105,0-0.949,0.422-2.319,1.266l-0.738,0.422c-0.105,0-0.105-0.105,0.105-0.316
	s0.527-0.422,0.738-0.633l2.003-1.476l1.476-1.16l0.738-0.526c0-0.105,0.105-0.211,0.211-0.211c0.104,0,0.315-0.105,0.632-0.422
	l0.105-0.422c-0.527,0.105-1.054,0.527-1.581,1.055c-0.422,0.105-0.844,0.211-1.37,0.211c-0.844,0-1.055-0.105-0.316-0.316
	c2.214-1.687,3.373-2.53,3.373-2.53v-0.105c-0.422,0.105-1.159,0.211-2.003,0.211c-5.798,0.422-9.487,0.949-10.963,1.581
	l-3.268,0.422c-1.477,0.105-2.425,0.316-2.741,0.633l-0.527,0.105c0-0.105-0.105-0.105-0.211-0.105
	c-0.211,0-0.421,0.105-0.737,0.316c-0.211,0.21-0.422,0.315-0.422,0.526c0,0.105,0.211-0.526-0.738-0.526c-0.421,0,0,0-0.316,0
	c-0.315,0-1.265,0-1.476-0.316c-0.526-0.422-1.792-0.633-2.319-1.792c-0.105-0.633-0.421-1.16-0.843-1.792
	c-0.422-0.633-0.844-1.055-1.16-1.266l-0.843-1.159c-0.105-0.211-0.633-0.738-1.581-1.476c-0.949-0.633-1.581-1.266-2.003-1.792
	c-0.316-0.527-0.527-1.16-0.527-2.003c0-0.422,0-0.738,0.105-1.16s0.211-0.737,0.527-1.159c0.526-0.949,1.054-1.476,1.476-1.476
	l0.211,0.104c-0.316,0.105-0.105,0.105,0.211,0.105c0.422,0,0.632,0.105,0.632,0.211l0.211,0.211c0.316,0,0.527-0.843,0.633-2.425
	l0.316-2.74c0-0.105,0-0.211-0.105-0.316c0,0-0.105,0-0.105,0.211c-0.105,0.316-0.316,0.422-0.422,0.422s-0.105-0.211-0.105-0.527
	c0.105-0.316,0.105-0.527,0.211-0.633s0.105-0.211,0.211-0.211c0.105,0.105,0.105,0,0.211-0.21c0.105-0.211,0.105-0.422,0.105-0.738
	v-0.211c-0.105-0.105-0.211-0.316-0.316-0.316c0.105-0.105,0.105-0.316,0.105-0.843c0-0.316,0.105-0.527,0.211-0.527
	c0.105-0.105,0.211,0,0.422,0.105l0.105,0.105c0.105,0,0.21-0.316,0.21-0.844c0-0.632,0.105-1.054,0.211-1.054
	c0.105-0.105,0.211-0.738,0.316-2.003c0.105-0.527,0.105-1.055,0.105-1.687v-0.211l-0.316-0.211c-0.105,0-0.211,0-0.316-0.105
	c0-0.105,0-0.211,0-0.422s0.105-0.316,0.105-0.422c0.105-0.21,0.211-0.315,0.316-0.421c0.211,0,0.422-0.105,0.422-0.316
	c0.316-1.371,0.422-2.425,0.422-3.269v-0.421c-0.105,0-0.105,0.105-0.211,0.211s-0.105,0.105-0.105-0.211
	c0-0.105-0.105-0.211-0.211-0.316c-0.105,0-0.211-0.211-0.211-0.527c0-0.422,0.105-0.633,0.211-0.633s0.211-0.105,0.211-0.315
	c0.105-0.105,0.105-0.316,0-0.422s-0.211-0.422-0.211-0.844c0-0.632,0.105-1.054,0.211-1.054s0.211,0.105,0.211,0.316
	c0,0.105,0.105,0.211,0.211,0.211s0.211-0.211,0.316-0.422l0.105-1.371v-1.476c0.104-0.422,0.104-0.632,0-0.632
	c-0.211-0.105-0.211-0.211,0-0.316c0.104-0.105,0.104-0.316,0.21-0.633c0.105-0.422,0.105-0.844,0.105-1.581v-0.422l-0.105,0.211
	c-0.315,0.633-0.526,1.054-0.526,1.054c-0.105,0.105-0.211,0-0.105-0.315l0.316-3.795c0.105-1.16,0.21-2.53,0.421-4.006l0.211-2.53
	c0.105-1.265,0.316-2.003,0.422-2.108c0.316-0.211,0.422-0.421,0.422-0.421c0-0.105-0.105-0.105-0.316,0.105
	c-0.105,0.105-0.211,0.105-0.211,0v-3.689c0.105-0.105,0.105-0.316,0.105-0.632c0-0.211,0-0.316-0.105-0.316s-0.211,0-0.211-0.105
	c0-0.105,0.105-0.21,0.211-0.21s0.105-0.422,0-1.16c0-0.632-0.105-1.054-0.211-1.054s-0.211,0.105-0.316,0.211l-0.105,0.105
	c-0.105,0-0.21-0.422-0.105-1.16l0.105-1.687l0.105-0.844l-0.211-4.111c-0.104-0.527-0.21-0.843-0.315-1.16
	c-0.105-0.211-0.316-0.527-0.633-0.738c-0.527-0.422-0.844-0.843-0.844-1.16c0-0.422,0.316-0.632,1.055-0.632l0.737-0.105
	c0.105-0.105,0.422-0.211,0.844-0.316c0.527,0,0.738,0,0.738,0S249.567,375.985,249.777,375.774z"/>
<path fill="#221714" d="M245.876,409.508"/>
<path fill="#221714" d="M245.455,409.402"/>
<path fill="#221714" d="M245.876,408.453"/>
<path fill="#221714" d="M246.087,406.556"/>
<path fill="#221714" d="M246.193,405.186"/>
<path fill="#221714" d="M292.154,459.896c-0.21,0-0.21,0-0.21,0.104"/>
<path fill="#753C48" d="M340.013,393.906c0.21-0.105,0.737-0.105,1.37-0.105c1.265,0,2.53,0.211,4.006,0.632
	c1.265,0.316,2.846,1.054,4.743,2.108c0.211,0.211,0.422,0.211,0.738,0.211c0.211,0,0.316,0.105,0.527,0.21s0.316,0.316,0.316,0.422
	c0.526,0.844,0.737,1.265,0.843,1.37l1.265,1.897c0.211,0.422,0.422,0.633,0.527,0.633c0.211,0,0.211,0,0.211,0.105
	c0.316,0.738,0.527,1.37,0.527,1.792c0,0.527-0.211,0.844-0.633,0.948c-0.211,0-0.316,0.105-0.527,0.422
	c0,0.211-0.105,0.527-0.421,0.844c-0.316,0.316-0.527,0.527-0.633,0.527c-0.211,0-0.633,0.21-1.16,0.632
	c-0.526,0.422-0.843,0.949-1.159,1.581c-1.37,1.897-2.214,2.847-2.53,2.847c-0.21,0.105-0.421,0.316-0.843,0.738
	c-0.422,0.421-0.633,0.843-0.844,1.265c-0.105,0.105-0.211,0.211-0.316,0.422s-0.421,0.526-0.843,1.054
	c-0.316,0.316-0.738,0.633-1.055,1.055c-0.421,0.421-0.737,0.843-1.054,1.265c-0.316,0.211-0.738,0.738-1.265,1.581
	c-0.316,0.527-0.633,0.949-0.738,1.37l-0.948,1.371l-0.527,0.843l0.422,0.738c1.265,1.581,2.424,3.373,3.479,5.271
	c0.422,0.633,0.632,0.949,0.737,0.949s0.105-0.105,0.105-0.422v-0.422c0.211,0,0.211,0.105,0.211,0.422c0,0.211,0,0.527,0.105,0.948
	c0.105,0.422,0.211,0.633,0.422,0.633c0.105,0.211,0.105,0.211,0.105,0c0-0.422,0.105-0.633,0.211-0.633
	c0.211,0.105,0.211,0.211,0,0.422c0.105,0,0.211,0,0.211,0h0.105c0.105,0,0.211,0.422,0.526,1.265l0.633,1.898
	c0,0.421,0.738,1.37,2.319,2.951c1.37,1.581,2.529,3.162,3.479,4.849c0.422,0.527,0.633,0.738,0.738,0.738
	c0.211,0,0.211-0.105,0.211-0.422v-0.211c0.21,0,0.315,0.105,0.421,0.211c0.105,0.211,0,0.316-0.105,0.527l-0.105,0.105l0.527,0.843
	c0,0.105,0.422,0.633,1.37,1.793l0.527,0.632c0.211,0.211,0.422,0.527,0.844,0.844c0.421,0.316,0.526,0.422,0.526,0.211v0.421
	l0.105,0.527c0.211,0.105,0.211,0.211,0,0.422c-0.105,0-0.105,0-0.105,0.105s0,0.211,0.105,0.211c0,0.422-0.105,0.527-0.211,0.527
	c-0.21-0.105-0.315,0-0.421,0.105c-0.105,0.21,0,0.315,0.105,0.421c0.105,0,0.105,0.105,0.105,0.422
	c-0.105,0.105-0.105,0.211-0.105,0.211c0,0.105,0.105,0.211,0.105,0.211c0.105,0.211,0,0.527-0.422,0.737
	c-0.422,0.211-0.738,0.422-0.949,0.422c-0.105,0-0.211,0-0.211,0.105c0,0.211-0.105,0.211-0.21,0.211
	c-0.211,0-0.633,0.211-0.949,0.527l-0.738,0.422c0-0.105-0.21-0.105-0.526-0.105c-0.211,0-0.316-0.105-0.527-0.211
	s-0.422-0.211-0.527-0.316c-0.632-0.422-1.159-0.633-1.581-0.738c-0.843-0.105-1.687-0.211-2.636-0.526
	c-0.948-0.211-1.581-0.527-1.792-0.738c-1.37-0.949-2.318-1.476-2.951-1.792c-0.422,0-0.738,0-0.844,0.105
	c-0.211,0.105-0.421,0.105-0.632,0.105s-0.211-0.105,0-0.316l0.211-0.105c0-0.105-0.105-0.211-0.211-0.211
	c-0.105-0.105-0.211-0.211-0.316-0.422c-0.633-0.526-1.055-1.476-1.266-2.635c0-0.633-0.104-0.844-0.21-0.844
	s-0.211-0.105-0.316-0.422s-0.211-0.526-0.211-0.632c0-0.211-0.105-0.316-0.211-0.527c-0.211-0.211-0.316-0.422-0.211-0.527
	c0-0.211-0.105-0.316-0.422-0.526l-0.526-0.527l-0.422-0.738c-0.316-0.316-0.527-0.737-0.527-1.159s-0.211-0.844-0.738-1.371
	c-0.632-0.421-1.054-0.948-1.37-1.581c-0.737-1.37-1.37-2.318-1.897-2.846c0-0.105-0.527,0.737-1.476,2.529l-3.162,6.114
	l-1.897,3.584c-0.105,0.211-0.422,0.738-0.949,1.477c-0.105,0.211-0.527,0.843-1.265,2.003c-0.527,0.526-0.844,0.948-0.949,1.265
	c-0.737,1.265-1.265,1.897-1.476,1.897s-0.211,0-0.211-0.105c-0.527-0.527-0.843-0.633-0.843-0.422c0,0.105-0.211,0.105-0.633,0.105
	c-0.316,0-0.633,0.211-0.844,0.527c-0.211,0.422-0.421,0.633-0.632,0.738c-0.211,0.21-0.422,0.315-0.527,0.21s-0.105-0.21,0-0.526
	c0.211-0.105,0.422-0.211,0.422-0.527c0.211-0.211,0.316-0.422,0.421-0.633c0.316-0.211,0.422-0.422,0.316-0.526
	c-0.105-0.105-0.316-0.105-0.526,0.104c-0.211,0.105-0.316,0.105-0.422,0.211c-0.105,0-0.105,0.105-0.105,0.211
	c0,0.211-0.211,0.422-0.738,0.844c-0.526,0.422-0.737,0.527-0.843,0.422c0-0.211-0.211-0.211-0.633-0.211
	c-0.316,0-0.527-0.105-0.527-0.211c0-0.211-0.105-0.422-0.211-0.527c-0.211-0.105-0.421-0.211-0.421-0.422
	c0-0.105-0.105-0.211-0.422-0.421c-0.316-0.211-0.527-0.527-0.633-1.055c0-0.316-0.105-0.633-0.422-0.843
	c-0.211,0-0.211-0.105-0.211-0.211l-0.21-0.738c-0.316-0.422-0.527-1.159-0.527-2.214c0-0.632,0.105-1.054,0.211-1.265
	c0-0.211-0.105-0.422-0.211-0.633c-0.211-0.211-0.316-0.316-0.105-0.527c0-0.21,0-0.421-0.105-0.526
	c-0.211,0-0.211-0.105,0.211-0.422c0.211-0.211,0.316-0.527,0.211-0.738s-0.211-0.421-0.211-0.526
	c0.211-0.633-0.738-1.897-2.847-3.689l-2.108-1.793c0-0.104,0-0.104,0.105-0.104s0.422,0.21,0.949,0.632s1.159,0.844,2.003,1.266
	l-0.633-0.633l-0.633-0.633c0.211,0,0.422,0.105,0.633,0.211l0.527,0.211c0.211,0-0.422-0.422-2.003-1.37l-1.159-0.422
	c-0.211-0.211-0.316-0.211-0.422-0.211c-0.316-0.211-0.633-0.316-0.949-0.422s-0.422-0.211-0.422-0.316h0.633
	c0,0.105,0.105,0.105,0.422,0.105c0-0.105-0.105-0.105-0.211-0.105c-0.211,0-0.211-0.105-0.211-0.421c0-0.105,0-0.105,0.105-0.105
	s0.211,0.105,0.211,0.105c0,0.211,0.211,0.421,0.633,0.421c0.316,0,0.843,0.105,1.476,0.422c0.633,0.422,0.948,0.527,0.948,0.422
	l-0.105-0.105c-0.105-0.211-0.21-0.211-0.526-0.211c-0.105,0-0.316-0.105-0.633-0.211c-0.316-0.211-0.633-0.211-0.844-0.211
	l-0.632-0.211c0-0.104,0.105-0.104,0.211-0.104l1.792,0.526l4.111,1.371l3.584,0.526h0.211c0.315,0,0.632-0.211,0.948-0.737
	c0.422-0.527,0.738-1.055,1.055-1.582c0.315-0.632,0.526-0.948,0.632-1.159l3.584-5.903c0.949-1.265,1.371-2.108,1.371-2.74
	c0-0.211,0-0.211-0.105-0.211l0.526-0.738l0.633-1.265l0.211-0.844l-0.527-0.843c-0.211-0.211-0.843-1.16-2.108-2.741l-0.948-1.265
	c-0.949-0.949-1.581-2.003-2.108-2.847l-2.741-3.479c-0.632-0.633-1.687-1.897-2.951-3.584c-1.476-1.792-2.319-2.847-2.636-3.373
	c-0.211-0.211-0.526-0.316-0.737-0.527s-0.527-0.316-0.738-0.527c-0.843-0.422-1.265-0.738-1.265-0.948l0.105-0.105
	c0.211,0,0.211-0.211,0.211-0.527c-0.105-0.211,0-0.422,0.21-0.422c0.211,0,0.422-0.105,0.633-0.211l0.422-0.105
	c0.105,0,0.211-0.105,0.211-0.211c0.105-0.105,0.211-0.21,0.422-0.21c0.21,0,0.421-0.105,0.421-0.211
	c0-0.211,0.211-0.211,0.527-0.211h0.633l0.948,0.211c1.055,0.421,2.741,0.632,5.061,0.632c2.74,0.316,4.11,0.633,4.11,0.738
	l0.738,0.633c0.211,0.105,0.422,0.21,0.633,0.315s0.422,0.211,0.422,0.316c0,0.844-0.211,1.266-0.527,1.266
	c0,0.211,0.211,0.526,0.633,0.948l1.581,2.214l1.265,1.792l3.689,4.849l0.211,0.422l0.527-0.737
	c0.105-0.105,0.211-0.211,0.211-0.422c0.105-0.211,0.315-0.422,0.632-0.738c0.211-0.211,0.316-0.421,0.527-0.737
	s0.422-0.738,0.633-1.16l0.948-1.581c0.738-1.37,1.16-2.319,1.37-2.951c0-0.211,0.211-0.633,0.527-1.16
	c0.316-0.526,0.633-0.843,0.949-1.054c0.105-0.105,0.211-0.211,0.421-0.211c0.211-0.105,0.316-0.211,0.422-0.422l0.211-0.633
	c0.211,0,0.422-0.315,0.527-0.843c0-0.316,0.211-0.738,0.527-1.16l0.526-0.737l-0.526-0.633c-0.844-0.843-1.266-1.476-1.266-1.897
	c0-0.21,0.105-0.316,0.211-0.527c0.316-0.211,0.527-0.211,0.527-0.211S339.697,393.906,340.013,393.906z"/>
<path fill="#B5BECD" d="M372.375,402.972c0-0.211,0.211-0.422,0.527-0.422c0.526,0,0.843,0.105,1.159,0.211
	c0.211,0.316,0.422,0.422,0.843,0.211c0.211-0.211,0.211-0.211,0.211-0.105c0,0.211,0,0.316,0.105,0.316s0.527,0,1.266,0.105
	l1.792,0.211c0.737,0,1.792,0.316,3.268,0.948c2.108,0.949,3.268,1.582,3.479,1.897c0.316,0.211,0.527,0.316,0.633,0.422
	s0,0.211-0.211,0.316c-0.527,0.211-0.844,0.316-1.054,0.527c-0.211,0.211-0.316,0.526-0.316,1.054v0.949
	c-0.422,0.421-0.844,2.951-1.371,7.695c-0.737,5.587-1.159,9.487-1.159,11.701l-0.105,2.951c-0.211,1.792-0.211,4.322-0.211,7.59
	c0,2.53,0,4.006,0.105,4.322c0.211,4.428,0.633,6.852,1.16,7.379c0.21,0.527,0.421,1.054,0.421,1.581v0.949
	c-0.105-0.105-0.105,0-0.105,0.421c0,0.211,0,0.422,0.105,0.633c0-0.422,0.105-0.633,0.422-0.633c0.211,0,0.422,0.422,0.422,1.266
	c0,0.843-0.105,1.687-0.422,2.53c-0.211,0.526-0.527,0.843-0.738,1.159c-0.21,0.316-0.843,0.633-1.792,1.159
	c-0.843,0.633-1.581,0.844-2.213,0.844c-0.633,0-0.949-0.105-0.949-0.211l-0.527-0.633c-0.211-0.211-0.421-0.316-0.421-0.526v-0.105
	c0-0.211-0.422-0.422-1.266-0.527l-1.265-0.422v-0.105c0-0.105,0.105-0.105,0.211-0.105c0.211,0.211,0.422,0.211,0.422,0
	s-0.105-0.316-0.422-0.526c-0.316-0.211-0.949-0.211-1.792-0.211c-1.16-0.211-1.897-0.422-2.214-0.633
	c-0.949-2.003-1.37-4.533-1.37-7.484c0-2.003,0.21-3.9,0.526-5.903v-0.949c0-0.526,0.105-1.159,0.211-2.003
	c0.211-0.843,0.422-2.318,0.633-4.321l0.737-7.063l0.422-3.162l0.105-2.003c0.211-0.211,0.211-1.159,0.211-2.951l0.211-3.374
	c0.211-0.632,0.316-2.424,0.422-5.271c0.105-1.897,0.105-4.111,0.105-6.746c0-1.266,0-1.897,0.105-1.897l0.421,1.476l0.211,1.581
	v-1.581c-0.211-0.422-0.211-0.844,0-1.371c0.422,0,0.633,0.844,0.738,2.636l0.105,1.792l-0.105-2.108v-2.108l-0.738-0.632
	c-0.632-0.422-0.843-0.633-0.843-0.633S372.375,403.288,372.375,402.972z"/>
<path fill="#494451" d="M375.01,385.367c0.527-0.21,0.949-0.421,1.477-0.421h0.632c1.16,0.105,2.319,0.527,3.374,1.16
	c1.054,0.738,1.897,1.476,2.318,2.424c0.422,0.949,0.633,2.003,0.738,3.163v1.054c0,0.949-0.422,2.108-1.159,3.479
	c-0.738,1.371-1.371,2.109-1.897,2.319l-1.266-0.526c-0.316-0.211-0.737-0.422-1.159-0.422c-0.844,0.633-1.792,0.948-2.847,1.159
	c-0.843,0-1.581-0.211-2.214-0.526c-0.526-0.211-0.948-0.633-1.37-0.949c-0.422-0.422-0.843-0.949-1.37-1.581
	c-0.949-1.16-1.37-2.425-1.37-3.9c0-1.476,0.526-2.741,1.476-3.584c1.581-1.371,2.529-2.108,2.951-2.108c0.316,0,0.527,0,0.527,0
	S374.273,385.789,375.01,385.367z"/>
<path fill="#687181" d="M426.031,400.021l2.214-0.211c1.476,0,3.584,0.421,6.324,1.265c2.847,1.159,4.744,2.319,5.588,3.373
	l1.897,2.003c0.21,0.211,0.421,0.316,0.632,0.527s0.211,0.316,0.105,0.422l0.211,0.527c0.422,0.526,1.265,1.897,2.53,4.216
	l0.527,1.897c0.104,0.316,0.104,1.582,0.104,3.585c0,2.002-0.104,3.689-0.21,4.954l-0.211,5.271
	c-0.105,1.055-0.422,3.584-0.844,7.59c-0.422,3.058-0.738,5.798-0.843,8.223c0,0.633,0,1.159,0.105,1.37
	c0.104,0.211,0.21,0.527,0.526,0.738c0.422,0.316,0.633,0.633,0.633,0.948c0,0.316,0.105,0.633,0.422,0.738
	c0.211,0.527,0.211,0.844,0.211,1.159l0.105,0.422c0,0.316-0.105,0.633-0.422,0.844s-0.527,0.526-0.527,0.843
	c0,0.211,0,0.527-0.105,0.633c0,0.211-0.211,0.316-0.422,0.422c-0.421,0.211-0.737,0.422-0.948,0.737
	c-0.211,0.316-0.633,0.949-0.949,2.003c-1.054,2.214-2.003,3.374-2.846,3.374c-0.211,0-0.422,0.105-0.633,0.21
	c0,0.105,0.105,0.105,0.422,0.105l0.633-0.21l-0.633,0.421c-0.316,0.211-0.527,0.211-0.633,0h-0.422
	c-0.843,0-1.581,0.211-2.107,0.633c-0.316,0.211-0.738,0.422-1.266,0.422c-0.422,0-0.633-0.105-0.633-0.422
	c0-0.211,0.105-0.316,0.422-0.527l0.211-0.211c0.211-0.632,0.422-0.948,0.633-1.159h-0.105c-0.211,0-0.422,0.105-0.633,0.211
	c-0.105,0.633-0.527,0.843-1.265,0.843c-0.316,0-0.633,0-0.738-0.105l-0.948-0.21l0.526-0.527c0.316-0.211,0.422-0.211,0.105-0.211
	c-0.526,0-1.054-0.316-1.792-0.949c-0.211-0.21-0.421-0.948-0.421-2.107c0-0.527-0.105-0.949-0.211-1.266s-0.422-0.632-0.844-0.948
	c-0.316-0.527-0.422-0.738-0.422-0.738c0.211,0,0.105-0.105-0.211-0.211c-0.315-0.105-0.526-0.211-0.526-0.422
	c0-0.21-0.211-0.421-0.527-0.737c-0.527-0.527-0.738-0.844-0.738-1.16c0-0.21,0-0.315,0.105-0.421
	c0.211-0.105,0.316-0.844,0.527-2.214c0-0.949,0.105-1.792,0.422-2.214c-0.105-0.211-0.316-0.633-0.844-1.055
	c-0.422-0.421-0.843-0.737-1.054-0.948s-0.211-0.211,0-0.211s0.527,0.316,1.265,0.949c0.211,0.21,0.422,0.315,0.633,0.526
	s0.422,0.316,0.527,0.316c0-0.211-0.422-1.159-1.16-2.635c-0.211-0.527-0.633-1.16-1.054-1.793
	c-0.422-0.526-0.738-0.948-0.949-1.265c-0.211-0.211-0.422-0.422-0.422-0.633v-0.104c0-0.105,0-0.211-0.105-0.211
	c0-0.105-0.104-0.211-0.21-0.422l-0.633-0.633c0-0.422,0.422-0.105,1.37,0.949c0.527,0.526,1.055,0.843,1.37,0.843
	c0-0.316-0.421-0.948-1.265-1.792c-0.633-0.633-0.948-0.948-0.738-0.948l0.211,0.105l-0.421-0.527
	c-0.422-0.422-0.633-0.633-0.633-0.738h0.105c0.211,0,0.527,0.211,0.737,0.527l1.582,0.738c0.211,0.21,0.315,0.21,0.211,0
	l-1.16-1.16c-0.422-0.211-0.633-0.316-0.737-0.422c-0.105-0.104,0-0.104,0.21-0.104l1.793,0.843
	c1.581,1.054,2.846,1.792,3.689,2.214c0.843,0.422,1.265,0.527,1.054,0.211l-0.105-1.266l0.105-2.107
	c0.211-1.793,0.316-3.163,0.422-4.111c0.105-0.949,0.316-1.582,0.422-1.582c0.21-0.21,0.421-0.632,0.421-0.948
	c0-0.422,0.105-0.633,0.422-0.633c0.211,0,0.422-0.105,0.422-0.421c0-0.211-0.105-0.316-0.211-0.527
	c-0.211-0.211-0.211-0.422-0.211-0.844s-0.105-0.843-0.316-1.476c-0.211-0.527-0.316-0.948-0.316-1.265
	c0-0.633,0.105-0.949,0.211-0.949c0.211,0,0.211,0,0-0.105c-0.315-0.632-0.526-1.37-0.526-2.108c0-0.211,0.105-0.421,0.421-0.421
	h0.105c0.316,0,0.527-0.211,0.527-0.527v-2.003c0-1.265-0.211-1.897-0.633-2.003c-0.21-0.211-0.421-0.527-0.421-0.949
	c0-0.632-0.422-1.476-1.16-2.318c-0.737-0.844-1.476-1.477-2.214-1.688c-0.211-0.105-0.526-0.105-0.948-0.105
	c-2.108,0-4.639,1.16-7.59,3.585c-1.37,1.159-2.425,2.214-3.269,3.268c-0.21,0.422-0.315,0.633-0.526,0.633
	s-0.422,0.105-0.633,0.421c-0.211,0.527-0.422,0.949-0.633,1.16c-0.315,0.316-0.632,0.737-0.737,1.265l-0.949,2.003
	c-0.316,0.633-0.526,1.265-0.632,1.792s-0.211,1.266-0.211,2.214l-0.211,3.162c-0.211,0.527-0.422,2.319-0.422,5.271
	c0,2.951-0.211,5.06-0.527,6.324c-0.211,1.477-0.526,3.795-0.948,6.958l-0.422,4.954c0,0.949,0,1.792-0.105,2.319
	s-0.211,0.844-0.527,0.844h-0.105h-0.105c-0.104,0-0.104,0.104-0.21,0.21c0,0.105,0,0.316,0.105,0.422c0,0.105,0,0.211-0.105,0.211
	c0,0.105-0.105,0.211-0.105,0.211c-0.211,0-0.211,0.105-0.211,0.211c0,0.211,0,0.211-0.105,0.211s-0.211-0.105-0.211-0.211
	c-0.105-0.105-0.105-0.316-0.105-0.422c-0.105-0.527-0.211-0.738-0.422-0.738l-0.211,0.844c0,0.527,0,0.738-0.105,0.844
	c-0.421,0-0.843-0.211-1.159-0.738c-0.105-0.316-0.633-0.633-1.476-0.738l-1.581-0.211c-0.316-0.315-0.527-0.737-0.633-1.265
	c-0.211-0.527-0.422-0.737-0.633-0.633c-0.211,0-0.422,0-0.422-0.104c0-0.211-0.21-0.633-0.526-1.266
	c-0.316-0.632-0.527-1.159-0.527-1.37c0-0.316-0.105-0.527-0.211-0.527l-0.422-0.737c-0.105-0.422-0.316-0.738-0.632-0.844
	c-0.422-0.316-0.633-0.633-0.633-0.738c0-0.211-0.211-0.526-0.527-0.737s-0.527-0.422-0.527-0.527s-0.104-0.105-0.21-0.105
	s-0.316,0-0.422-0.211h-0.211c-0.105,0.211-0.211,0.211-0.422,0s-0.422-0.422-0.633-0.422h-0.421c0-0.105,0.105-0.105,0.421-0.105
	h0.105c0.211,0,0.211-0.315,0.211-0.948c-0.105-0.211,0-0.844,0.422-1.897c0.211-0.949,0.316-1.581,0.527-1.792
	c0.422-1.37,1.054-4.533,1.897-9.171c0.211-0.633,0.633-2.319,0.948-4.955l0.527-2.74l0.633-2.952c0.948-3.9,1.37-6.746,1.476-8.644
	c0.211-1.897,0.422-3.163,0.738-3.689c0.21-0.211-0.949-0.422-3.374-0.844c-1.37-0.211-2.108-0.422-2.108-0.633
	c0-0.105,0.316-0.105,0.844-0.105s0.949,0,1.159-0.105c0.316-0.104,0.738-0.421,1.16-0.843c0.422-0.527,0.632-0.844,0.632-0.949
	c0-0.421,0.211-0.737,0.633-1.054s0.949-0.422,1.581-0.422h0.527c0.949,0.316,1.792,0.527,2.319,0.527h0.211
	c0.316,0.105,0.526,0.211,0.632,0.422c0.211,0.211,1.16,0.843,3.163,1.581l2.74,0.948l1.582-1.265
	c0.737-0.527,1.37-0.949,1.792-1.265c0.421-0.422,0.737-0.633,1.159-0.844c1.476-0.737,2.847-1.37,4.006-1.792
	c1.792-0.844,2.636-1.265,2.636-1.265S425.293,400.126,426.031,400.021z"/>
<path fill="#52759A" d="M486.312,418.481c0,0-1.13,0.624-6.875,2.104c-1.73,0.446-10.08,1.88-10.08,1.88c0,0.51-0.103,0,0,0
	l19.509,15.117c2.349,1.838,4.188,3.268,5.517,4.086l2.246,1.531c1.328,0.818,2.247,1.226,2.86,1.226
	c0.103,0,0.409,0.103,1.123,0.204c0.511,0.103,0.92,0.205,1.329,0.512c0.51,0.204,0.918,0.715,1.327,1.327
	c0.409,0.613,0.612,1.124,0.612,1.431c0.103,0.204,0.307,0.612,0.613,1.123c0.307,0.512,0.715,1.021,1.227,1.532
	c1.021,1.022,1.736,2.146,2.144,3.167l0.716,1.839c0.204,0.203,0.204,0.51,0.204,0.816s-0.103,0.716-0.204,1.327
	c-0.205,0.613-0.307,1.022-0.409,1.125l-0.612,2.247l-1.124,0.51c-0.919,0.409-1.839,0.613-2.554,0.613
	c-0.612,0-1.123-0.103-1.328-0.409c-0.307-0.408-1.021-0.714-2.043-0.816c-1.43-0.307-2.553-0.92-3.37-1.736
	c-0.409-0.408-1.021-0.715-1.839-0.92l-1.531-0.613c0.204-0.204,0.102-0.305-0.205-0.407c-0.204-0.103-0.408-0.204-0.408-0.511
	c0.102-0.103,0.102-0.205,0-0.307c-0.103-0.103-0.205-0.205-0.409-0.205c-0.203,0-0.306,0-0.407-0.102
	c-0.103-0.103-0.103-0.205,0-0.205c0-0.204-0.103-0.407-0.409-0.816c-0.204-0.408-0.511-0.613-0.716-0.613l-0.102,0.409
	l-4.596-7.559l-1.125-1.123l-15.729-16.344l-0.613-0.204l0.102,10.112c0.103,3.269,0.205,5.822,0.307,7.661
	c0.103,1.838,0.205,2.859,0.205,3.063l0.102,1.532c0,0.92-0.102,1.533-0.204,2.043c-0.511,1.124-0.716,1.838-0.716,2.043
	c-0.102,0.817-0.407,1.634-1.021,2.451s-1.227,1.43-1.736,1.736c-0.511,0.103-1.124,0.512-2.043,1.226
	c-0.817,0.409-1.634,0.613-2.452,0.613c-0.613,0-1.123-0.103-1.531-0.204l-1.736-2.146c-0.512-0.714-0.92-1.94-1.125-3.677
	c-0.203-1.736-0.305-5.721-0.305-11.848v-5.108c0.204-0.204,0.204-4.902,0.204-14.197l0.51-33.809l0.204-9.091l-0.816-0.919
	c-0.204-0.204-0.307-0.511-0.511-0.613c-0.204-0.204-0.307-0.306-0.307-0.409c0-0.204,0.613-0.409,1.839-0.511
	c1.123,0,1.736,0,1.736,0s0.408-0.102,0.511-0.204s0.816,0,2.146,0.204l2.45,0.511c0.92,0.409,2.554,0.919,4.903,1.736
	c0.612,0.205,1.021,0.409,1.328,0.817c0.307,0.409,0.715,1.124,1.327,2.247c0.307,0.613,0.511,1.328,0.511,1.941
	c0,0.408-0.102,0.817-0.408,1.123c-0.307,0.409-0.715,0.817-1.43,1.226c-0.205,0.204-0.409,0.511-0.512,0.613
	c-0.102,0.204-0.102,0.613-0.102,1.124l-0.408,5.72c-0.204,1.123-0.408,7.252-0.817,18.487l-0.103,4.086l1.123-0.919l10.215-5.414
	c0.716-0.408,2.248-1.226,4.598-2.451c2.348-1.227,3.982-2.248,4.8-2.963l0.613-0.612l-0.716-1.226l-0.919-1.226l0.715,0.205
	c0.511,0.102,0.92,0,1.43-0.409c0.511-0.409,1.124-0.613,1.736-0.613c0.307,0,1.022,0.204,2.146,0.511
	c0.613,0.205,1.124,0.715,1.532,1.328c0.306,0.613,0.715,1.124,1.328,1.532c0.919,0.919,1.634,1.737,2.043,2.452
	c0.306,0.511,0.714,0.919,1.226,1.328c1.123,1.124,1.736,2.043,1.736,2.86v0.204c-0.307,1.124-0.613,1.941-0.919,2.452
	c-0.307,0.51-0.92,0.918-1.736,1.327c-0.511,0.205-0.817,0.511-1.124,0.612c-0.307,0.205-0.512,0.307-0.715,0.307l-0.102-0.102
	l-0.92,0.205c-2.35,0.919-3.678,1.328-4.086,1.124h-0.103c-0.307-0.103-0.714,0-1.226,0.408c-0.919,0.613-1.838,0.92-2.758,0.92
	c-0.306,0-0.51-0.103-0.51-0.205l0.611-0.511c0.103,0,0.103,0,0.103-0.103c0-0.102-0.103-0.102-0.204-0.102
	c-0.306-0.101-0.408-0.204-0.408-0.204c0-0.102,0.408-0.409,1.328-0.817l1.225-0.715l-0.714-0.102c-0.511-0.103-1.022-0.103-1.533,0
	c-0.407,0.204-0.612,0.307-0.816,0.307c-0.103,0-0.103-0.103,0.204-0.409l0.205-0.203l-1.227,0.203"/>
<path fill="#AFD2EA" d="M149.38,465.904l7.379,6.853c1.687,1.687,4.006,2.53,6.325,2.425l0,0c2.319,0,4.533-1.055,6.114-2.636
	l16.55-17.71c3.269-3.584,3.163-9.065-0.422-12.438l-26.143-24.352l22.138-23.824c1.37-1.37,2.213-3.162,2.424-5.06l0.211-0.21
	l-0.211-0.211c0-0.316,0-0.527,0-0.843c0-2.425-0.948-4.744-2.635-6.325l-16.973-15.812c-1.687-1.582-3.795-2.319-6.113-2.319l0,0
	c-0.422,0-0.738,0-1.16,0l-0.316-0.316l-0.526,0.527c-1.688,0.422-3.163,1.371-4.428,2.635l-22.138,23.824l-26.143-24.351
	c-3.479-3.268-9.065-3.163-12.334,0.421l0,0l-16.655,17.71c-3.268,3.584-3.057,9.066,0.422,12.439l8.433,7.906l9.172,8.539
	l8.433,8.012L82.442,440.5l0,0l0,0l0,0v0.211l0,0c0,0,0,0.104,0,0.21l0,0l0,0v0.211l0,0c-0.105,0.211-0.105,0.527-0.211,0.738
	l-3.689,28.567c-0.211,1.792,0.948,3.373,2.635,3.795v0.211h2.108l0,0l27.725-5.587h0.211c0.843-0.211,1.687-0.738,2.214-1.581
	l16.972-18.87l18.132,16.867"/>
<path fill="#58A0C7" d="M162.451,466.537c-0.421,0-0.843-0.105-1.159-0.422l-5.903-5.481l10.12-10.963
	c0.105,0,0.105-0.105,0.211-0.211c1.159-1.581,0.843-3.795-0.738-4.954c-1.37-1.055-3.373-0.844-4.639,0.315l-10.225,10.964
	l-4.006-3.689l10.225-10.964l0,0c0.633-0.737,0.949-1.687,0.949-2.635c0-0.949-0.422-1.792-1.159-2.425
	c-0.738-0.633-1.582-0.949-2.53-0.949c-0.949,0-1.792,0.422-2.53,1.16l-10.226,10.963l-5.902-5.376l18.869-20.24l26.143,24.352
	c0.633,0.632,0.633,1.687,0,2.425l-16.55,17.709c-0.316,0.316-0.738,0.527-1.16,0.527L162.451,466.537z"/>
<path fill="#58A0C7" d="M109.639,397.701L109.639,397.701c1.265-1.476,1.159-3.689-0.316-4.955
	c-0.633-0.527-1.476-0.843-2.319-0.843c-0.948,0-1.792,0.421-2.425,1.054l0,0l-10.225,10.858l-4.006-3.689l10.225-10.964l0,0
	c1.16-1.37,1.16-3.479-0.21-4.849c-0.738-0.738-1.688-1.054-2.636-1.054c-0.844,0-1.792,0.421-2.319,1.054l0,0l-10.226,10.963
	l-5.903-5.481c-0.632-0.633-0.632-1.792,0-2.425l16.551-17.815c0.316-0.316,0.737-0.527,1.159-0.527l0,0
	c0.422,0,0.844,0.211,1.16,0.422l26.143,24.351l-18.869,20.239l-5.903-5.481l10.12-10.963V397.701z"/>
<polygon fill="#6CA1B9" points="146.64,382.416 166.035,400.547 153.386,414.04 153.386,414.04 129.773,439.445 129.562,439.656 
	111.431,459.158 92.034,441.026 "/>
<polygon fill="#398EC6" points="103.947,462.215 87.501,465.483 89.715,448.616 "/>
</svg>
